<svg width="20" height="20" viewBox="0 0 20 20" fill="none" xmlns="http://www.w3.org/2000/svg">
<circle cx="9.92885" cy="9.92885" r="9.92885" fill="#9B9B9B"/>
<path fill-rule="evenodd" clip-rule="evenodd" d="M9.55372 14.2834H10.333C10.333 14.2834 10.5684 14.2576 10.6886 14.128C10.7992 14.0091 10.7957 13.7857 10.7957 13.7857C10.7957 13.7857 10.7804 12.7401 11.2658 12.5861C11.7442 12.4344 12.3585 13.5967 13.0096 14.0436C13.502 14.3818 13.8762 14.3077 13.8762 14.3077L15.6173 14.2834C15.6173 14.2834 16.5281 14.2273 16.0962 13.5112C16.0608 13.4526 15.8447 12.9815 14.8017 12.0133C13.71 11.0001 13.8562 11.164 15.1712 9.41121C15.9721 8.34378 16.2923 7.69209 16.1923 7.41298C16.0969 7.14714 15.5079 7.2174 15.5079 7.2174L13.5475 7.22962C13.5475 7.22962 13.4022 7.20979 13.2944 7.27422C13.1891 7.3374 13.1213 7.48466 13.1213 7.48466C13.1213 7.48466 12.8111 8.31068 12.3973 9.01316C11.5243 10.4955 11.1753 10.5737 11.0327 10.4817C10.7008 10.2671 10.7836 9.61988 10.7836 9.16006C10.7836 7.7236 11.0015 7.12466 10.3594 6.96962C10.1463 6.91811 9.98947 6.88413 9.44451 6.87864C8.74504 6.87139 8.15301 6.88077 7.81779 7.04502C7.59478 7.15422 7.42274 7.39758 7.52752 7.41156C7.65708 7.42891 7.95053 7.49068 8.1061 7.70254C8.30699 7.97581 8.29991 8.58962 8.29991 8.58962C8.29991 8.58962 8.41531 10.2806 8.03035 10.4907C7.76611 10.6347 7.40363 10.3406 6.6254 8.99581C6.22664 8.30696 5.92557 7.54555 5.92557 7.54555C5.92557 7.54555 5.86752 7.40325 5.76398 7.32714C5.63832 7.23493 5.46274 7.20555 5.46274 7.20555L3.59991 7.21776C3.59991 7.21776 3.32026 7.22555 3.21761 7.34714C3.12628 7.45528 3.21035 7.679 3.21035 7.679C3.21035 7.679 4.66876 11.091 6.32009 12.8105C7.83425 14.387 9.55372 14.2834 9.55372 14.2834Z" fill="white"/>
</svg>
